<svg xmlns="http://www.w3.org/2000/svg" viewBox="0 0 70.83 70.83">
  <defs>
    <style>
      .icon {
        stroke: #787878;
        stroke-miterlimit: 10;
        stroke-width: 1.5px;
      }
    </style>
  </defs>
  <title>Asset 1</title>
  <g class="icon_color" id="Layer_2" data-name="Layer 2">
    <g id="Layer_2-2" data-name="Layer 2">
      <circle class="icon" cx="35.41" cy="35.41" r="34.66"/>
      <g>
        <path class="icon" d="M22.56,40.2a5.65,5.65,0,1,1-3.49-10.11H51.88a16.4,16.4,0,1,1-32.81,0"/>
        <rect class="icon" x="18.51" y="47.25" width="33.94" height="3.18" rx="1.57" ry="1.57"/>
        <path class="icon" d="M19.17,31.85a3.79,3.79,0,0,0-3.45,3.76h0a3.79,3.79,0,0,0,3.77,3.77h0a3.75,3.75,0,0,0,2.11-.65"/>
        <path class="icon" d="M32.24,16c.65,2.58-.66,5.14-2.92,5.71-2.46.62-3.88,3.4-3.17,6.2"/>
        <path class="icon" d="M39.28,16.24c.65,2.58-.66,5.14-2.92,5.71-2.46.62-3.88,3.4-3.17,6.2"/>
        <path class="icon" d="M46.33,16.47C47,19,45.67,21.6,43.4,22.18c-2.46.62-3.88,3.4-3.17,6.2"/>
      </g>
    </g>
  </g>
</svg>
