<svg xmlns="http://www.w3.org/2000/svg" viewBox="0 0 70.83 70.83">
  <defs>
    <style>
      .cls-1 {
        fill: none;
        stroke: #787878;
        stroke-miterlimit: 10;
        stroke-width: 1.5px;
      }
    </style>
  </defs>
  <title>Asset 4</title>
  <g id="Layer_2" data-name="Layer 2">
    <g id="Layer_2-2" data-name="Layer 2">
      <circle class="cls-1" cx="35.41" cy="35.41" r="34.66"/>
      <g>
        <polygon class="cls-1" points="49.27 25.45 45.43 28.27 42.2 25.4 38.67 28.44 35.4 25.4 32.13 28.44 28.6 25.4 25.37 28.27 21.56 25.44 21.56 54.41 49.27 54.41 49.27 25.45"/>
        <path class="cls-1" d="M48.12,26.34V16a4.91,4.91,0,0,0-4.9-4.9H41.53a4.91,4.91,0,0,0-4.9,4.9V26.54"/>
        <line class="cls-1" x1="40.02" y1="19.93" x2="47.44" y2="13.64"/>
        <line class="cls-1" x1="42.44" y1="22.35" x2="48.06" y2="17.23"/>
        <line class="cls-1" x1="44.68" y1="24.58" x2="48.08" y2="21.4"/>
        <path class="cls-1" d="M36.1,27.68"/>
        <path class="cls-1" d="M48.72,15.93"/>
        <path class="cls-1" d="M22.54,26a8.61,8.61,0,0,1,5.75-8A7.22,7.22,0,0,1,31,17.62a8.81,8.81,0,0,1,5.59,2"/>
        <line class="cls-1" x1="23.35" y1="17.31" x2="26.97" y2="18.43"/>
        <line class="cls-1" x1="25.68" y1="15.17" x2="26.97" y2="18.43"/>
        <line class="cls-1" x1="29.06" y1="14.87" x2="26.97" y2="18.43"/>
        <rect class="cls-1" x="26.97" y="37.01" width="16.76" height="6.25"/>
      </g>
    </g>
  </g>
</svg>
