<svg xmlns="http://www.w3.org/2000/svg" viewBox="0 0 70.83 70.83">
  <defs>
    <style>
      .icon_color {
        fill: none;
        stroke: #787878;
        stroke-miterlimit: 10;
        stroke-width: 1.5px;
      }
    </style>
  </defs>
  <title>Asset 5</title>
  <g id="Layer_2" data-name="Layer 2">
    <g id="Layer_2-2" data-name="Layer 2">
      <circle class="icon_color" cx="35.41" cy="35.41" r="34.66"/>
      <g>
        <polygon class="icon_color" points="35.41 44.2 52.14 44.2 54.38 48.36 35.41 48.36 16.44 48.36 18.69 44.2 35.41 44.2"/>
        <g>
          <path class="icon_color" d="M22.25,26.1h0a1.2,1.2,0,0,1,1.2,1.2V44H21V27.3A1.2,1.2,0,0,1,22.25,26.1Z"/>
          <path class="icon_color" d="M28.83,26.21h0a1.2,1.2,0,0,1,1.2,1.2V44.09h-2.4V27.42A1.2,1.2,0,0,1,28.83,26.21Z"/>
          <path class="icon_color" d="M35.41,26.21h0a1.2,1.2,0,0,1,1.2,1.2V44.09h-2.4V27.42A1.2,1.2,0,0,1,35.41,26.21Z"/>
          <path class="icon_color" d="M42,26.21h0a1.2,1.2,0,0,1,1.2,1.2V44.09h-2.4V27.42A1.2,1.2,0,0,1,42,26.21Z"/>
          <path class="icon_color" d="M48.58,26.21h0a1.2,1.2,0,0,1,1.2,1.2V44.09h-2.4V27.42A1.2,1.2,0,0,1,48.58,26.21Z"/>
        </g>
        <path class="icon_color" d="M16.57,28.08"/>
        <polyline class="icon_color" points="21.05 28.07 17.22 28.07 17.22 23.56 35.41 18.46 53.61 23.56 53.61 28.07 49.78 28.07"/>
        <line class="icon_color" x1="27.63" y1="28.08" x2="23.45" y2="28.08"/>
        <line class="icon_color" x1="34.21" y1="28.08" x2="30.03" y2="28.08"/>
        <line class="icon_color" x1="40.79" y1="28.08" x2="36.61" y2="28.08"/>
        <line class="icon_color" x1="47.38" y1="28.08" x2="43.2" y2="28.08"/>
      </g>
    </g>
  </g>
</svg>
